<svg xmlns="http://www.w3.org/2000/svg" viewBox="0 0 555.92 555.92"><defs><style>.cls-1{fill:#b1c7ff;}.cls-2{fill:#b86100;}.cls-3{fill:#aa4200;}.cls-4{fill:#714200;}.cls-5{fill:#f4ffa2;}</style></defs><title>Asset 1</title><g id="Layer_2" data-name="Layer 2"><g id="Layer_1-2" data-name="Layer 1"><rect class="cls-1" width="555.92" height="555.92" rx="28.62" ry="28.62"/><path class="cls-2" d="M527.3,555.92H28.62A28.62,28.62,0,0,1,0,527.3v-142c0-15.81,273.25-2,289.05-2l195-12c15.81,0,71.87-12.81,71.87,3v153A28.62,28.62,0,0,1,527.3,555.92Z"/><path class="cls-3" d="M527.3,555.92H28.62A28.62,28.62,0,0,1,0,527.3V334c39.39,92.67,555.92,134.19,555.92,150V527.3A28.62,28.62,0,0,1,527.3,555.92Z"/><path class="cls-4" d="M527.3,555.92H28.62A28.62,28.62,0,0,1,0,527.3v-21c0-15.81,116.25-53,132.05-53l304-48c15.81,0,119.87-87.14,119.87-71.33V527.3A28.62,28.62,0,0,1,527.3,555.92Z"/><polygon class="cls-5" points="139.91 134.03 139.25 140.83 136.79 134.45 135.05 141.06 133.65 134.37 130.87 140.61 130.56 133.79 126.81 139.5 127.6 132.72 122.99 137.76 124.86 131.19 119.5 135.42 122.39 129.23 116.42 132.55 120.27 126.91 113.85 129.23 118.55 124.28 111.84 125.54 117.28 121.4 110.45 121.57 116.48 118.36 109.71 117.43 116.18 115.23 109.65 113.23 116.39 112.09 110.27 109.07 117.1 109.03 111.54 105.06 118.29 106.12 113.44 101.31 119.93 103.44 115.91 97.91 121.98 101.06 118.9 94.96 124.38 99.03 122.33 92.52 127.08 97.42 126.1 90.66 130.01 96.26 130.12 89.43 133.08 95.59 134.28 88.86 136.22 95.41 138.48 88.97 139.34 95.75 142.62 89.75 142.38 96.58 146.57 91.18 145.24 97.88 150.24 93.23 147.85 99.63 153.53 95.84 150.15 101.78 156.37 98.95 152.07 104.26 158.67 102.47 153.58 107.02 160.37 106.31 154.62 109.99 161.44 110.38 155.17 113.09 161.84 114.56 155.21 116.23 161.56 118.76 154.75 119.34 160.61 122.85 153.8 122.34 159.02 126.74 152.38 125.14 156.83 130.33 150.53 127.69 154.09 133.52 148.29 129.9 150.87 136.22 145.73 131.72 147.26 138.38 142.91 133.11 143.35 139.93 139.91 134.03"/></g></g></svg>